<?xml version="1.0" encoding="UTF-8" standalone="no"?>
<svg
   xmlns:dc="http://purl.org/dc/elements/1.1/"
   xmlns:cc="http://creativecommons.org/ns#"
   xmlns:rdf="http://www.w3.org/1999/02/22-rdf-syntax-ns#"
   xmlns:svg="http://www.w3.org/2000/svg"
   xmlns="http://www.w3.org/2000/svg"
   xmlns:sodipodi="http://sodipodi.sourceforge.net/DTD/sodipodi-0.dtd"
   xmlns:inkscape="http://www.inkscape.org/namespaces/inkscape"
   aria-hidden="true"
   focusable="false"
   data-prefix="fas"
   data-icon="exclamation-triangle"
   class="svg-inline--fa fa-exclamation-triangle fa-w-18"
   role="img"
   viewBox="0 0 576 512"
   version="1.1"
   id="svg1011"
   sodipodi:docname="exclamation-triangle-solid.svg"
   inkscape:version="1.0.2 (e86c8708, 2021-01-15)">
  <metadata
     id="metadata1017">
    <rdf:RDF>
      <cc:Work
         rdf:about="">
        <dc:format>image/svg+xml</dc:format>
        <dc:type
           rdf:resource="http://purl.org/dc/dcmitype/StillImage" />
      </cc:Work>
    </rdf:RDF>
  </metadata>
  <defs
     id="defs1015" />
  <sodipodi:namedview
     pagecolor="#ffffff"
     bordercolor="#666666"
     borderopacity="1"
     objecttolerance="10"
     gridtolerance="10"
     guidetolerance="10"
     inkscape:pageopacity="0"
     inkscape:pageshadow="2"
     inkscape:window-width="776"
     inkscape:window-height="480"
     id="namedview1013"
     showgrid="false"
     inkscape:zoom="1.4355469"
     inkscape:cx="288"
     inkscape:cy="256"
     inkscape:window-x="0"
     inkscape:window-y="22"
     inkscape:window-maximized="0"
     inkscape:current-layer="svg1011"
     inkscape:document-rotation="0" />
  <path
     fill="currentColor"
     d="m 569.51701,440.013 c 18.45798,31.994 -4.711,71.987 -41.577,71.987 H 48.054001 C 11.117,512 -11.945,471.945 6.4770002,440.013 L 246.423,23.985 c 18.467,-32.009 64.72,-31.951 83.15401,0 z M 288.00001,354 c -25.405,0 -46,20.595 -46,46 0,25.405 20.595,46 46,46 C 313.40501,446 334,425.405 334,400 c 0,-25.405 -20.59499,-46 -45.99999,-46 z m -43.673,-165.346 7.41799,136 c 0.34701,6.364 5.609,11.346 11.982,11.346 h 48.54601 c 6.37299,0 11.635,-4.982 11.982,-11.346 l 7.41799,-136 C 332.04801,181.78 326.575,176 319.69101,176 h -63.383 c -6.88401,0 -12.35601,5.78 -11.981,12.654 z"
     id="path1009"
     style="fill:#d00000;stroke-width:1;opacity:1;fill-opacity:1" />
</svg>
