<?xml version="1.0" encoding="UTF-8" standalone="no"?>
<svg
   xmlns:dc="http://purl.org/dc/elements/1.1/"
   xmlns:cc="http://creativecommons.org/ns#"
   xmlns:rdf="http://www.w3.org/1999/02/22-rdf-syntax-ns#"
   xmlns:svg="http://www.w3.org/2000/svg"
   xmlns="http://www.w3.org/2000/svg"
   xmlns:sodipodi="http://sodipodi.sourceforge.net/DTD/sodipodi-0.dtd"
   xmlns:inkscape="http://www.inkscape.org/namespaces/inkscape"
   version="1.1"
   id="Layer_1"
   x="0px"
   y="0px"
   viewBox="0 0 741.3 254.4"
   xml:space="preserve"
   sodipodi:docname="Slacker_RGB.svg"
   width="741.29999"
   height="254.39999"
   inkscape:version="1.0.2 (e86c8708, 2021-01-15)"><metadata
   id="metadata142"><rdf:RDF><cc:Work
       rdf:about=""><dc:format>image/svg+xml</dc:format><dc:type
         rdf:resource="http://purl.org/dc/dcmitype/StillImage" /><dc:title></dc:title></cc:Work></rdf:RDF></metadata><defs
   id="defs140"><rect
   x="169.61504"
   y="180.96053"
   width="449.8486"
   height="70.909302"
   id="rect277" /><rect
   x="564.43799"
   y="97.003922"
   width="56.72744"
   height="72.611122"
   id="rect165" />
	
	
</defs><sodipodi:namedview
   pagecolor="#ffffff"
   bordercolor="#666666"
   borderopacity="1"
   objecttolerance="10"
   gridtolerance="10"
   guidetolerance="10"
   inkscape:pageopacity="0"
   inkscape:pageshadow="2"
   inkscape:window-width="1230"
   inkscape:window-height="706"
   id="namedview138"
   showgrid="false"
   inkscape:showpageshadow="true"
   inkscape:zoom="1.2464987"
   inkscape:cx="364.70185"
   inkscape:cy="162.19991"
   inkscape:window-x="0"
   inkscape:window-y="22"
   inkscape:window-maximized="0"
   inkscape:current-layer="Layer_1" />
<style
   type="text/css"
   id="style95">
	.st0{fill:#E01E5A;}
	.st1{fill:#36C5F0;}
	.st2{fill:#2EB67D;}
	.st3{fill:#ECB22E;}
</style>
<g
   id="g107">
		
		
		
		
		
	<text
   xml:space="preserve"
   id="text163"
   style="font-size:40px;line-height:1.25;font-family:Hellix;-inkscape-font-specification:'Hellix, Normal';white-space:pre;shape-inside:url(#rect165);"
   transform="matrix(1.9708493,0,0,3.6711281,-549.10253,-308.37578)"><tspan
     style="visibility:hidden"
     x="564.4375"
     y="208.09816"><tspan
       dx="0 18.59375 9.453125 23.75 21.484375 20.46875 22.03125">slacker</tspan></tspan></text></g><g
   id="g316"><text
     xml:space="preserve"
     id="text275"
     style="font-size:53.33330000000000126px;line-height:1.25;font-family:Hellix;-inkscape-font-specification:'Hellix, Normal';white-space:pre;shape-inside:url(#rect277);"
     transform="matrix(2.662607,0,0,2.7959599,-231.66665,-479.98823)"><tspan
       x="169.61523"
       y="232.27148"><tspan
         style="font-size:53.3333px">slacker</tspan></tspan></text><g
     id="g133">
		<g
   id="g113">
			<path
   class="st0"
   d="m 89.2,142 c 0,7.3 -5.9,13.2 -13.2,13.2 -7.3,0 -13.2,-5.9 -13.2,-13.2 0,-7.3 5.9,-13.2 13.2,-13.2 h 13.2 z"
   id="path109" />
			<path
   class="st0"
   d="m 95.8,142 c 0,-7.3 5.9,-13.2 13.2,-13.2 7.3,0 13.2,5.9 13.2,13.2 v 33 c 0,7.3 -5.9,13.2 -13.2,13.2 -7.3,0 -13.2,-5.9 -13.2,-13.2 z"
   id="path111" />
		</g>
		<g
   id="g119">
			<path
   class="st1"
   d="m 109,89 c -7.3,0 -13.2,-5.9 -13.2,-13.2 0,-7.3 5.9,-13.2 13.2,-13.2 7.3,0 13.2,5.9 13.2,13.2 V 89 Z"
   id="path115" />
			<path
   class="st1"
   d="m 109,95.7 c 7.3,0 13.2,5.9 13.2,13.2 0,7.3 -5.9,13.2 -13.2,13.2 H 75.9 c -7.3,0 -13.2,-5.9 -13.2,-13.2 0,-7.3 5.9,-13.2 13.2,-13.2 z"
   id="path117" />
		</g>
		<g
   id="g125">
			<path
   class="st2"
   d="m 161.9,108.9 c 0,-7.3 5.9,-13.2 13.2,-13.2 7.3,0 13.2,5.9 13.2,13.2 0,7.3 -5.9,13.2 -13.2,13.2 h -13.2 z"
   id="path121" />
			<path
   class="st2"
   d="m 155.3,108.9 c 0,7.3 -5.9,13.2 -13.2,13.2 -7.3,0 -13.2,-5.9 -13.2,-13.2 V 75.8 c 0,-7.3 5.9,-13.2 13.2,-13.2 7.3,0 13.2,5.9 13.2,13.2 z"
   id="path123" />
		</g>
		<g
   id="g131">
			<path
   class="st3"
   d="m 142.1,161.8 c 7.3,0 13.2,5.9 13.2,13.2 0,7.3 -5.9,13.2 -13.2,13.2 -7.3,0 -13.2,-5.9 -13.2,-13.2 v -13.2 z"
   id="path127" />
			<path
   class="st3"
   d="m 142.1,155.2 c -7.3,0 -13.2,-5.9 -13.2,-13.2 0,-7.3 5.9,-13.2 13.2,-13.2 h 33.1 c 7.3,0 13.2,5.9 13.2,13.2 0,7.3 -5.9,13.2 -13.2,13.2 z"
   id="path129" />
		</g>
	</g></g>
</svg>
