<svg xmlns="http://www.w3.org/2000/svg" width="620.712" height="125.6"  xmlns:v="https://vecta.io/nano"><text xml:space="preserve" transform="matrix(1.970849 0 0 3.671128 -611.80253 -370.97578)" font-size="40" font-family="Hellix"><tspan x="564.438" y="208.098" visibility="hidden"><tspan dx="0 18.59375 9.453125 23.75 21.484375 20.46875 22.03125">slacker</tspan></tspan></text><text xml:space="preserve" transform="matrix(2.662607 0 0 2.79596 -294.36665 -542.58823)" font-size="53.333" font-family="Hellix"><tspan x="169.615" y="232.271">slacker</tspan></text><path d="M26.5 79.4a13.19 13.19 0 0 1-13.2 13.2 13.2 13.2 0 1 1 0-26.4h13.2zm6.6 0a13.2 13.2 0 1 1 26.4 0v33a13.2 13.2 0 1 1-26.4 0z" fill="#e01e5a"/><path d="M46.3 26.4a13.19 13.19 0 0 1-13.2-13.2 13.2 13.2 0 1 1 26.4 0v13.2zm0 6.7a13.2 13.2 0 1 1 0 26.4H13.2a13.2 13.2 0 1 1 0-26.4z" fill="#36c5f0"/><path d="M99.2 46.3a13.2 13.2 0 1 1 26.4 0 13.19 13.19 0 0 1-13.2 13.2H99.2zm-6.6 0a13.2 13.2 0 1 1-26.4 0V13.2a13.2 13.2 0 1 1 26.4 0z" fill="#2eb67d"/><path d="M79.4 99.2a13.2 13.2 0 1 1 0 26.4 13.19 13.19 0 0 1-13.2-13.2V99.2zm0-6.6a13.2 13.2 0 1 1 0-26.4h33.1a13.2 13.2 0 1 1 0 26.4z" fill="#ecb22e"/></svg>